<svg id="Capa_1" data-name="Capa 1" xmlns="http://www.w3.org/2000/svg" viewBox="0 0 32 32"><path d="M18.16,26.39,14.11,24c-3.8-2.2-7.59-4.4-11.4-6.56a1.31,1.31,0,0,1-.81-1.39c.07-.9,0-1.8,0-2.94.66.34,1.14.57,1.6.83,5.61,3.24,11.23,6.44,16.8,9.73a2,2,0,0,0,2.61-.05,10.86,10.86,0,0,1,1.22-.75L10.43,15,2.66,10.48a1.61,1.61,0,0,1,0-2.81c4-2.32,8-4.62,12-6.95a1.63,1.63,0,0,1,1.84,0q6,3.48,12,6.91A1.25,1.25,0,0,1,29.32,9c-.06.92,0,1.85,0,3-.54-.28-.88-.42-1.19-.6C24.3,9.15,20.49,7,16.72,4.75a1.71,1.71,0,0,0-2.23,0,10.26,10.26,0,0,1-1.38.82l4.73,2.75c3.55,2.05,7.11,4.11,10.68,6.14a1.31,1.31,0,0,1,.8,1.39c-.07.89,0,1.79,0,2.89-.49-.23-.83-.35-1.14-.53C22.4,14.9,16.63,11.6,10.9,8.24c-.87-.51-1.58-.74-2.42,0a11,11,0,0,1-1.42.87l9.63,5.57L28.53,21.5a1.64,1.64,0,0,1,0,2.88c-4,2.29-8,4.57-11.95,6.88a1.68,1.68,0,0,1-1.93,0q-6-3.47-12-6.86A1.32,1.32,0,0,1,1.9,23c.06-.89,0-1.79,0-2.89.51.24.85.37,1.16.55C6.89,22.85,10.7,25,14.47,27.25a1.71,1.71,0,0,0,2.23,0A11.24,11.24,0,0,1,18.16,26.39Z"/></svg>