<?xml version="1.0" encoding="utf-8"?>
<!-- Generator: Adobe Illustrator 26.1.0, SVG Export Plug-In . SVG Version: 6.00 Build 0)  -->
<svg version="1.1" id="Capa_1" xmlns="http://www.w3.org/2000/svg" xmlns:xlink="http://www.w3.org/1999/xlink" x="0px" y="0px"
	 viewBox="0 0 200 150" style="enable-background:new 0 0 200 150;" xml:space="preserve">
<style type="text/css">
	.st0{fill:#FFFFFF;}
</style>
<path class="st0" d="M33.1,71.3c-0.9,0.1-1.8,0.1-2.8,0c-0.6-0.2-1.2-0.4-1.8-0.7c-0.6-0.3-1.2-0.6-1.8-0.7c-4-0.1-7.9,0-11.9,0
	c-0.3,0-0.8,0-1,0.2c-0.4,0.4-0.7,0.8-0.8,1.4c0.1,0.5,0.5,0.9,1,1.1c1.4,0.2,2.9,0.3,4.3,0.4c4,0.2,8,0.2,12,0.6
	c1.8,0.1,3.6,0.6,5.2,1.5c2.3,1.4,2.5,4,2.5,6.3c0,0,0,0.1,0,0.1c-0.5,5.8-2.2,7.6-8,7.7c-6.5,0.1-13-0.1-19.4-0.2
	c-1.2-0.1-2.3-0.4-3.3-0.9c-2-1.1-3.2-3.3-2.7-5.6c0.2-0.4,0.6-0.7,1.1-0.8c2.1-0.1,4.2,0,6.2,0c0.3,0,0.7,0,0.8,0.2
	c1.4,1.7,3.3,1.4,5.1,1.4c3.2,0.1,6.5-0.1,9.7-0.2c0.9,0,1.8-0.2,1.9-1.3s-0.7-1.4-1.7-1.5c-3.9-0.2-7.8-0.3-11.7-0.6
	c-2.2-0.1-4.3-0.3-6.5-0.6c-3.4-0.6-5.1-2.8-5.1-6.2c0-0.8,0-1.6,0-2.5c0.1-3.7,1.8-6,5.5-6.4c7.5-0.9,15.1-0.8,22.6,0.2
	c3.5,0.5,4.8,2.3,5,5.6c0.1,1.2-0.4,1.6-1.5,1.5C35,71.2,34,71.3,33.1,71.3z"/>
<path class="st0" d="M178.7,89c-3.5,0-7,0.2-10.4,0c-3.9-0.2-6.1-2.3-6.3-6.1c-0.2-4.3-0.2-8.6,0-12.9c0.2-3.8,2.5-6,6.3-6
	c6.9-0.2,13.8-0.2,20.7,0c4.1,0.1,6.2,2,6.4,6c0.3,4.4,0.3,8.8,0,13.2c-0.2,3.7-2.4,5.7-6.2,5.8C185.8,89.1,182.2,89,178.7,89z
	 M178.6,82.5c2.1-0.1,4.2-0.2,6.3-0.3c1.5,0.1,2.8-1.1,2.9-2.6c0-0.1,0-0.2,0-0.2c0.1-1.9,0.1-3.9,0-5.8c-0.1-1.9-0.9-2.8-2.8-2.8
	c-4.2-0.1-8.4,0-12.6,0c-1.2-0.1-2.2,0.9-2.3,2.1c0,0,0,0.1,0,0.1c-0.1,2.3-0.2,4.5-0.1,6.8c-0.1,1.3,1,2.4,2.3,2.5
	c0.1,0,0.2,0,0.2,0C174.5,82.3,176.6,82.4,178.6,82.5L178.6,82.5z"/>
<path class="st0" d="M106.9,89c-3.5,0-7,0.1-10.4,0c-4-0.2-6.1-2.3-6.3-6.2c-0.2-4.2-0.2-8.4,0-12.6c0.2-4,2.3-6.1,6.3-6.2
	c7-0.2,13.9-0.2,20.9,0c4.1,0.1,6.2,2.3,6.4,6.4s0.2,8.2,0,12.3s-2.3,6.1-6.4,6.3C113.8,89.1,110.3,89,106.9,89z M106.9,82.5
	c2.1-0.1,4.2-0.2,6.4-0.4c1.4,0.1,2.5-1,2.6-2.3c0,0,0-0.1,0-0.1c0.1-2.2,0.1-4.4-0.1-6.6c-0.2-1.7-0.9-2.4-2.7-2.4
	c-4.1-0.1-8.2,0-12.3,0c-1.3-0.1-2.5,0.9-2.7,2.2c0,0,0,0.1,0,0.1c-0.2,2.2-0.2,4.4-0.1,6.7c0.1,1.6,1,2.4,2.7,2.5
	C102.7,82.3,104.8,82.4,106.9,82.5L106.9,82.5z"/>
<path class="st0" d="M83.9,79.4c1.9,0.7,2.2,2.6,2.3,4.6c0,1.2,0,2.4,0,3.6c0,0.9-0.3,1.3-1.3,1.3c-1.8,0-3.6,0-5.4,0
	c-0.9,0-1.2-0.4-1.2-1.2s0-1.8-0.1-2.8c-0.2-1.6-0.7-2.2-2.3-2.2c-3.7,0-7.4,0-11,0c-1,0-1.4,0.4-1.4,1.4c0,1.2,0,2.3,0,3.5
	c0,0.9-0.4,1.3-1.3,1.3c-1.7,0-3.4-0.1-5.1,0c-1.3,0.1-1.7-0.5-1.7-1.7c0-3.5,0-7,0-10.5c0-3.7,0-7.4,0-11.2c0-1.3,0.4-1.8,1.8-1.8
	c7.4,0,14.8,0,22.2,0c1.1,0,2.1,0.1,3.2,0.4c2.9,0.8,3.8,3.1,3.9,5.8c0.1,1.9,0,3.9-0.3,5.8C85.8,77.1,84.7,78.1,83.9,79.4z
	 M70.5,76.1L70.5,76.1c1.8-0.1,3.6-0.1,5.4-0.1s2.5-0.7,2.6-2.7s-0.6-2.7-2.5-2.7c-2.9,0-5.8,0-8.7,0c-4.3,0-3.7-0.7-3.8,4
	c0,1,0.4,1.5,1.4,1.5C66.7,76.1,68.6,76.1,70.5,76.1z"/>
<path class="st0" d="M146.6,76.2c5.1,4.2,10.1,8.2,15,12.3c-0.3,0.3-0.3,0.4-0.4,0.4c-3.6,0-7.2,0.1-10.9,0
	c-0.5-0.1-0.9-0.3-1.2-0.7c-3-2.6-6.1-5.1-9-7.7c-1.3-1.2-2.7-0.8-4.1-0.7c-0.2,0-0.6,0.8-0.6,1.2c-0.1,2.1-0.1,4.3,0,6.4
	c0,1.2-0.3,1.7-1.6,1.6c-1.7-0.1-3.4,0-5.1,0c-1,0-1.4-0.3-1.4-1.3c0-7.5,0-14.9,0-22.4c0-1,0.4-1.4,1.4-1.4c1.7,0,3.5,0,5.2,0
	c1,0,1.5,0.4,1.5,1.4c-0.1,2.1,0,4.2,0,6.2c0,0.9,0.3,1.2,1.3,1.3c1.5,0.2,3.1-0.4,4.1-1.6c2.2-2.3,4.7-4.5,7.1-6.7
	c0.4-0.4,0.8-0.6,1.4-0.7c3.7-0.1,7.3,0,11,0l0.2,0.4L146.6,76.2z"/>
<path class="st0" d="M42.2,76.5c0-3.6,0-7.2,0-10.9c0-1.2,0.4-1.8,1.7-1.7c1.7,0.1,3.5,0,5.2,0c1,0,1.5,0.4,1.5,1.4
	c0,7.4,0,14.8,0,22.2c0,1.2-0.5,1.5-1.6,1.5c-1.7-0.1-3.5-0.1-5.2,0c-1.2,0.1-1.6-0.5-1.6-1.6C42.2,83.7,42.2,80.1,42.2,76.5z"/>
</svg>
